<svg 
 xmlns="http://www.w3.org/2000/svg"
 xmlns:xlink="http://www.w3.org/1999/xlink"
 width="550px" height="116px">
<path fill-rule="evenodd"  fill="rgb(255, 255, 255)"
 d="M549.402,97.520 C549.402,97.520 549.402,113.000 549.402,113.000 C549.402,113.000 488.687,113.000 488.687,113.000 C488.687,113.000 488.687,23.046 488.687,23.046 C488.687,23.046 547.682,23.046 547.682,23.046 C547.682,23.046 547.682,38.525 547.682,38.525 C547.682,38.525 508.638,38.525 508.638,38.525 C508.638,38.525 508.638,59.337 508.638,59.337 C508.638,59.337 542.006,59.337 542.006,59.337 C542.006,59.337 542.006,73.957 542.006,73.957 C542.006,73.957 508.638,73.957 508.638,73.957 C508.638,73.957 508.638,97.520 508.638,97.520 C508.638,97.520 549.402,97.520 549.402,97.520 ZM448.267,98.552 C456.523,98.552 462.543,95.284 467.531,90.296 C467.531,90.296 478.366,101.992 478.366,101.992 C470.283,110.764 459.791,115.064 447.407,115.064 C422.983,115.064 403.376,99.068 403.376,68.453 C403.376,38.525 423.843,20.982 448.783,20.982 C460.479,20.982 470.455,26.313 476.819,32.677 C476.819,32.677 465.983,44.717 465.983,44.717 C460.995,40.073 456.007,37.493 448.955,37.493 C434.335,37.493 423.671,48.845 423.671,67.765 C423.671,87.544 433.303,98.552 448.267,98.552 ZM384.798,113.000 C384.798,113.000 378.434,91.156 378.434,91.156 C378.434,91.156 347.819,91.156 347.819,91.156 C347.819,91.156 341.283,113.000 341.283,113.000 C341.283,113.000 321.159,113.000 321.159,113.000 C321.159,113.000 351.775,23.046 351.775,23.046 C351.775,23.046 374.994,23.046 374.994,23.046 C374.994,23.046 405.610,113.000 405.610,113.000 C405.610,113.000 384.798,113.000 384.798,113.000 ZM371.210,66.905 C368.458,57.617 366.050,47.469 363.298,38.181 C363.298,38.181 362.610,38.181 362.610,38.181 C360.030,47.641 357.622,57.617 355.043,66.905 C355.043,66.905 352.119,76.709 352.119,76.709 C352.119,76.709 374.134,76.709 374.134,76.709 C374.134,76.709 371.210,66.905 371.210,66.905 ZM283.490,49.189 C283.490,49.189 324.426,49.189 324.426,49.189 C324.426,49.189 324.426,66.045 324.426,66.045 C324.426,66.045 283.490,66.045 283.490,66.045 C283.490,66.045 283.490,113.000 283.490,113.000 C283.490,113.000 263.539,113.000 263.539,113.000 C263.539,113.000 263.539,0.514 263.539,0.514 C263.539,0.514 331.477,0.514 331.477,0.514 C331.477,0.514 331.477,17.370 331.477,17.370 C331.477,17.370 283.490,17.370 283.490,17.370 C283.490,17.370 283.490,49.189 283.490,49.189 ZM188.375,23.046 C188.375,23.046 247.370,23.046 247.370,23.046 C247.370,23.046 247.370,38.525 247.370,38.525 C247.370,38.525 208.326,38.525 208.326,38.525 C208.326,38.525 208.326,59.337 208.326,59.337 C208.326,59.337 241.694,59.337 241.694,59.337 C241.694,59.337 241.694,73.957 241.694,73.957 C241.694,73.957 208.326,73.957 208.326,73.957 C208.326,73.957 208.326,97.520 208.326,97.520 C208.326,97.520 249.090,97.520 249.090,97.520 C249.090,97.520 249.090,113.000 249.090,113.000 C249.090,113.000 188.375,113.000 188.375,113.000 C188.375,113.000 188.375,23.046 188.375,23.046 ZM155.350,113.000 C155.350,113.000 131.098,68.969 131.098,68.969 C131.098,68.969 113.899,68.969 113.899,68.969 C113.899,68.969 113.899,113.000 113.899,113.000 C113.899,113.000 93.947,113.000 93.947,113.000 C93.947,113.000 93.947,0.514 93.947,0.514 C93.947,0.514 131.958,0.514 131.958,0.514 C155.350,0.514 173.238,8.770 173.238,33.881 C173.238,51.081 164.294,61.401 150.878,66.045 C150.878,66.045 177.709,113.000 177.709,113.000 C177.709,113.000 155.350,113.000 155.350,113.000 ZM153.630,33.881 C153.630,20.982 145.202,16.510 129.894,16.510 C129.894,16.510 113.899,16.510 113.899,16.510 C113.899,16.510 113.899,53.145 113.899,53.145 C113.899,53.145 129.894,53.145 129.894,53.145 C145.202,53.145 153.630,46.609 153.630,33.881 ZM38.563,71.721 C38.563,71.721 20.675,71.721 20.675,71.721 C20.675,71.721 20.675,113.000 20.675,113.000 C20.675,113.000 0.724,113.000 0.724,113.000 C0.724,113.000 0.724,0.514 0.724,0.514 C0.724,0.514 38.563,0.514 38.563,0.514 C63.159,0.514 81.390,9.114 81.390,35.257 C81.390,60.197 62.815,71.721 38.563,71.721 ZM37.015,16.510 C37.015,16.510 20.675,16.510 20.675,16.510 C20.675,16.510 20.675,55.725 20.675,55.725 C20.675,55.725 37.015,55.725 37.015,55.725 C53.699,55.725 61.783,49.017 61.783,35.257 C61.783,21.154 53.355,16.510 37.015,16.510 Z"/>
</svg>