<svg 
 xmlns="http://www.w3.org/2000/svg"
 xmlns:xlink="http://www.w3.org/1999/xlink"
 width="14.781cm" height="4.868cm">
<defs>
<filter id="Filter_0">
  <feFlood flood-color="rgb(255, 255, 255)" flood-opacity="1" result="floodOut" />
  <feComposite operator="atop" in="floodOut" in2="SourceGraphic" result="compOut" />
  <feBlend mode="normal" in="compOut" in2="SourceGraphic" />
</filter>

</defs><g filter="url(#Filter_0)">
<path fill-rule="evenodd"  fill="rgb(35, 33, 38)"
 d="M396.619,75.618 C396.619,75.618 396.619,136.000 396.619,136.000 C396.619,136.000 374.864,136.000 374.864,136.000 C374.864,136.000 374.864,75.618 374.864,75.618 C374.864,75.618 353.109,75.618 353.109,75.618 C353.109,75.618 353.109,57.859 353.109,57.859 C353.109,57.859 418.375,57.859 418.375,57.859 C418.375,57.859 418.375,75.618 418.375,75.618 C418.375,75.618 396.619,75.618 396.619,75.618 ZM372.050,136.000 C372.050,136.000 319.216,136.000 319.216,136.000 C319.216,136.000 319.216,57.859 319.216,57.859 C319.216,57.859 340.971,57.859 340.971,57.859 C340.971,57.859 340.971,118.241 340.971,118.241 C340.971,118.241 372.050,118.241 372.050,118.241 C372.050,118.241 372.050,136.000 372.050,136.000 ZM278.663,137.776 C255.576,137.776 239.740,122.532 239.740,96.485 C239.740,96.387 239.745,96.292 239.746,96.194 C239.746,96.194 227.306,136.000 227.306,136.000 C227.306,136.000 201.259,136.000 201.259,136.000 C201.259,136.000 182.228,74.730 182.228,74.730 C182.228,74.730 153.604,74.730 153.604,74.730 C153.604,74.730 153.604,88.346 153.604,88.346 C153.604,88.346 180.539,88.346 180.539,88.346 C180.539,88.346 180.539,104.181 180.539,104.181 C180.539,104.181 153.604,104.181 153.604,104.181 C153.604,104.181 153.604,119.129 153.604,119.129 C153.604,119.129 186.459,119.129 186.459,119.129 C186.459,119.129 186.459,136.000 186.459,136.000 C186.459,136.000 133.622,136.000 133.622,136.000 C133.622,136.000 131.849,136.000 131.849,136.000 C131.849,136.000 109.203,136.000 109.203,136.000 C109.203,136.000 90.704,101.221 90.704,101.221 C90.704,101.221 78.716,101.221 78.716,101.221 C78.716,101.221 78.716,136.000 78.716,136.000 C78.716,136.000 56.961,136.000 56.961,136.000 C56.961,136.000 56.961,89.698 56.961,89.698 C54.522,89.918 52.038,90.034 49.518,90.034 C49.518,90.034 30.590,90.034 30.590,90.034 C30.590,90.034 30.590,136.000 30.590,136.000 C30.590,136.000 0.015,136.000 0.015,136.000 C0.015,136.000 0.015,0.389 0.015,0.389 C0.015,0.389 49.518,0.389 49.518,0.389 C77.680,0.389 100.650,10.375 102.431,40.268 C117.689,42.617 128.887,50.782 128.887,69.550 C128.887,83.758 122.079,92.785 111.719,97.373 C111.719,97.373 131.849,132.872 131.849,132.872 C131.849,132.872 131.849,57.859 131.849,57.859 C131.849,57.859 176.988,57.859 176.988,57.859 C176.988,57.859 184.979,57.859 184.979,57.859 C184.979,57.859 199.483,57.859 199.483,57.859 C199.483,57.859 208.363,91.897 208.363,91.897 C210.583,100.185 212.359,108.029 214.579,116.761 C214.579,116.761 215.171,116.761 215.171,116.761 C217.539,108.177 219.315,100.185 221.386,91.897 C221.386,91.897 229.970,57.859 229.970,57.859 C229.970,57.859 251.725,57.859 251.725,57.859 C251.725,57.859 248.173,69.227 248.173,69.227 C255.045,60.648 265.712,56.083 278.663,56.083 C301.454,56.083 317.290,70.734 317.290,96.485 C317.290,122.532 301.454,137.776 278.663,137.776 ZM47.646,24.724 C47.646,24.724 30.590,24.724 30.590,24.724 C30.590,24.724 30.590,65.699 30.590,65.699 C30.590,65.699 47.646,65.699 47.646,65.699 C51.123,65.699 54.222,65.374 56.961,64.744 C56.961,64.744 56.961,39.507 56.961,39.507 C56.961,39.507 72.249,39.507 72.249,39.507 C70.473,28.793 61.988,24.724 47.646,24.724 ZM100.641,58.396 C97.189,70.408 89.285,78.802 78.858,83.906 C78.858,83.906 89.964,83.906 89.964,83.906 C101.360,83.906 107.575,79.022 107.575,69.550 C107.575,63.674 105.178,60.194 100.641,58.396 ZM278.663,73.990 C268.303,73.990 262.087,82.130 262.087,96.485 C262.087,110.989 268.303,119.869 278.663,119.869 C288.726,119.869 294.942,110.989 294.942,96.485 C294.942,82.130 288.726,73.990 278.663,73.990 Z"/>
</g>
</svg>